<mxfile host="Electron" agent="Mozilla/5.0 (Windows NT 10.0; Win64; x64) AppleWebKit/537.36 (KHTML, like Gecko) draw.io/28.0.6 Chrome/138.0.7204.100 Electron/37.2.3 Safari/537.36" version="28.0.6">
  <diagram name="Page-1" id="XgTtU-bipYdH9bKiCL_6">
    <mxGraphModel dx="772" dy="501" grid="1" gridSize="10" guides="1" tooltips="1" connect="1" arrows="1" fold="1" page="1" pageScale="1" pageWidth="850" pageHeight="1100" math="0" shadow="0">
      <root>
        <mxCell id="0" />
        <mxCell id="1" parent="0" />
        <mxCell id="QwqwHCSS0KJHq1qbMGpB-1" value="" style="rounded=0;whiteSpace=wrap;html=1;fillColor=none;" vertex="1" parent="1">
          <mxGeometry x="80" y="120" width="120" height="320" as="geometry" />
        </mxCell>
        <mxCell id="QwqwHCSS0KJHq1qbMGpB-2" value="" style="rounded=0;whiteSpace=wrap;html=1;fillColor=none;dashed=1;strokeColor=#d79b00;" vertex="1" parent="1">
          <mxGeometry x="280" y="120" width="120" height="320" as="geometry" />
        </mxCell>
        <mxCell id="QwqwHCSS0KJHq1qbMGpB-3" value="" style="rounded=0;whiteSpace=wrap;html=1;fillColor=none;dashed=1;strokeColor=#8A8A8A;" vertex="1" parent="1">
          <mxGeometry x="470" y="120" width="120" height="320" as="geometry" />
        </mxCell>
        <mxCell id="QwqwHCSS0KJHq1qbMGpB-39" style="edgeStyle=elbowEdgeStyle;rounded=0;orthogonalLoop=1;jettySize=auto;elbow=vertical;html=1;entryX=0;entryY=0.25;entryDx=0;entryDy=0;" edge="1" parent="1">
          <mxGeometry relative="1" as="geometry">
            <mxPoint x="169.9999999999999" y="194.5" as="sourcePoint" />
            <mxPoint x="280" y="194.5" as="targetPoint" />
            <Array as="points">
              <mxPoint x="210" y="194.5" />
              <mxPoint x="250" y="194.5" />
            </Array>
          </mxGeometry>
        </mxCell>
        <mxCell id="QwqwHCSS0KJHq1qbMGpB-5" value="" style="image;aspect=fixed;html=1;points=[];align=center;fontSize=12;image=img/lib/azure2/general/Folder_Blank.svg;" vertex="1" parent="1">
          <mxGeometry x="113.32" y="170" width="56.68" height="46" as="geometry" />
        </mxCell>
        <mxCell id="QwqwHCSS0KJHq1qbMGpB-6" value="" style="image;aspect=fixed;html=1;points=[];align=center;fontSize=12;image=img/lib/azure2/general/Folder_Blank.svg;" vertex="1" parent="1">
          <mxGeometry x="110" y="324" width="60" height="48.69" as="geometry" />
        </mxCell>
        <mxCell id="QwqwHCSS0KJHq1qbMGpB-7" value="" style="image;aspect=fixed;html=1;points=[];align=center;fontSize=12;image=img/lib/azure2/general/File.svg;" vertex="1" parent="1">
          <mxGeometry x="160" y="200" width="24.35" height="30" as="geometry" />
        </mxCell>
        <mxCell id="QwqwHCSS0KJHq1qbMGpB-8" value="" style="image;aspect=fixed;html=1;points=[];align=center;fontSize=12;image=img/lib/azure2/general/File.svg;" vertex="1" parent="1">
          <mxGeometry x="160" y="360" width="24.35" height="30" as="geometry" />
        </mxCell>
        <mxCell id="QwqwHCSS0KJHq1qbMGpB-9" value="CRM" style="text;html=1;align=center;verticalAlign=middle;whiteSpace=wrap;rounded=0;" vertex="1" parent="1">
          <mxGeometry x="110" y="210" width="60" height="30" as="geometry" />
        </mxCell>
        <mxCell id="QwqwHCSS0KJHq1qbMGpB-10" value="ERP" style="text;html=1;align=center;verticalAlign=middle;whiteSpace=wrap;rounded=0;" vertex="1" parent="1">
          <mxGeometry x="110" y="370" width="60" height="30" as="geometry" />
        </mxCell>
        <mxCell id="QwqwHCSS0KJHq1qbMGpB-111" style="edgeStyle=elbowEdgeStyle;rounded=0;orthogonalLoop=1;jettySize=auto;elbow=vertical;html=1;entryX=0;entryY=0.5;entryDx=0;entryDy=0;" edge="1" parent="1" source="QwqwHCSS0KJHq1qbMGpB-12" target="QwqwHCSS0KJHq1qbMGpB-65">
          <mxGeometry relative="1" as="geometry" />
        </mxCell>
        <mxCell id="QwqwHCSS0KJHq1qbMGpB-12" value="cust_info" style="text;html=1;align=center;verticalAlign=middle;whiteSpace=wrap;rounded=0;fillColor=#ffe6cc;strokeColor=#d79b00;" vertex="1" parent="1">
          <mxGeometry x="285" y="178" width="110" height="30" as="geometry" />
        </mxCell>
        <mxCell id="QwqwHCSS0KJHq1qbMGpB-112" style="edgeStyle=elbowEdgeStyle;rounded=0;orthogonalLoop=1;jettySize=auto;elbow=vertical;html=1;entryX=0;entryY=0.5;entryDx=0;entryDy=0;" edge="1" parent="1" source="QwqwHCSS0KJHq1qbMGpB-13" target="QwqwHCSS0KJHq1qbMGpB-66">
          <mxGeometry relative="1" as="geometry" />
        </mxCell>
        <mxCell id="QwqwHCSS0KJHq1qbMGpB-13" value="prd_info" style="text;html=1;align=center;verticalAlign=middle;whiteSpace=wrap;rounded=0;fillColor=#ffe6cc;strokeColor=#d79b00;" vertex="1" parent="1">
          <mxGeometry x="285" y="220" width="110" height="30" as="geometry" />
        </mxCell>
        <mxCell id="QwqwHCSS0KJHq1qbMGpB-110" style="edgeStyle=elbowEdgeStyle;rounded=0;orthogonalLoop=1;jettySize=auto;elbow=vertical;html=1;entryX=0;entryY=0.5;entryDx=0;entryDy=0;" edge="1" parent="1" source="QwqwHCSS0KJHq1qbMGpB-14" target="QwqwHCSS0KJHq1qbMGpB-67">
          <mxGeometry relative="1" as="geometry" />
        </mxCell>
        <mxCell id="QwqwHCSS0KJHq1qbMGpB-14" value="sales_details" style="text;html=1;align=center;verticalAlign=middle;whiteSpace=wrap;rounded=0;fillColor=#ffe6cc;strokeColor=#d79b00;" vertex="1" parent="1">
          <mxGeometry x="285" y="140" width="110" height="30" as="geometry" />
        </mxCell>
        <mxCell id="QwqwHCSS0KJHq1qbMGpB-43" style="edgeStyle=elbowEdgeStyle;rounded=0;orthogonalLoop=1;jettySize=auto;elbow=horizontal;html=1;entryX=0.028;entryY=0.103;entryDx=0;entryDy=0;entryPerimeter=0;" edge="1" parent="1" source="QwqwHCSS0KJHq1qbMGpB-5" target="QwqwHCSS0KJHq1qbMGpB-2">
          <mxGeometry relative="1" as="geometry">
            <Array as="points">
              <mxPoint x="220" y="160" />
            </Array>
          </mxGeometry>
        </mxCell>
        <mxCell id="QwqwHCSS0KJHq1qbMGpB-45" style="edgeStyle=elbowEdgeStyle;rounded=0;orthogonalLoop=1;jettySize=auto;elbow=horizontal;html=1;entryX=-0.011;entryY=0.399;entryDx=0;entryDy=0;entryPerimeter=0;" edge="1" parent="1" source="QwqwHCSS0KJHq1qbMGpB-5" target="QwqwHCSS0KJHq1qbMGpB-2">
          <mxGeometry relative="1" as="geometry">
            <Array as="points">
              <mxPoint x="220" y="230" />
            </Array>
          </mxGeometry>
        </mxCell>
        <mxCell id="QwqwHCSS0KJHq1qbMGpB-78" style="edgeStyle=elbowEdgeStyle;rounded=0;orthogonalLoop=1;jettySize=auto;elbow=vertical;html=1;" edge="1" parent="1" source="QwqwHCSS0KJHq1qbMGpB-46" target="QwqwHCSS0KJHq1qbMGpB-68">
          <mxGeometry relative="1" as="geometry" />
        </mxCell>
        <mxCell id="QwqwHCSS0KJHq1qbMGpB-46" value="cust_az12" style="text;html=1;align=center;verticalAlign=middle;whiteSpace=wrap;rounded=0;fillColor=#ffe6cc;strokeColor=#d79b00;" vertex="1" parent="1">
          <mxGeometry x="285" y="290" width="110" height="30" as="geometry" />
        </mxCell>
        <mxCell id="QwqwHCSS0KJHq1qbMGpB-47" value="loc_a101" style="text;html=1;align=center;verticalAlign=middle;whiteSpace=wrap;rounded=0;fillColor=#ffe6cc;strokeColor=#d79b00;" vertex="1" parent="1">
          <mxGeometry x="285" y="330" width="110" height="30" as="geometry" />
        </mxCell>
        <mxCell id="QwqwHCSS0KJHq1qbMGpB-80" style="edgeStyle=elbowEdgeStyle;rounded=0;orthogonalLoop=1;jettySize=auto;elbow=vertical;html=1;entryX=0;entryY=0.5;entryDx=0;entryDy=0;" edge="1" parent="1" source="QwqwHCSS0KJHq1qbMGpB-48" target="QwqwHCSS0KJHq1qbMGpB-70">
          <mxGeometry relative="1" as="geometry" />
        </mxCell>
        <mxCell id="QwqwHCSS0KJHq1qbMGpB-48" value="px_cat_g1v2" style="text;html=1;align=center;verticalAlign=middle;whiteSpace=wrap;rounded=0;fillColor=#ffe6cc;strokeColor=#d79b00;" vertex="1" parent="1">
          <mxGeometry x="285" y="370" width="110" height="30" as="geometry" />
        </mxCell>
        <mxCell id="QwqwHCSS0KJHq1qbMGpB-51" style="edgeStyle=elbowEdgeStyle;rounded=0;orthogonalLoop=1;jettySize=auto;elbow=horizontal;html=1;entryX=-0.033;entryY=0.564;entryDx=0;entryDy=0;entryPerimeter=0;" edge="1" parent="1" source="QwqwHCSS0KJHq1qbMGpB-6" target="QwqwHCSS0KJHq1qbMGpB-2">
          <mxGeometry relative="1" as="geometry">
            <Array as="points">
              <mxPoint x="220" y="320" />
            </Array>
          </mxGeometry>
        </mxCell>
        <mxCell id="QwqwHCSS0KJHq1qbMGpB-54" style="edgeStyle=elbowEdgeStyle;rounded=0;orthogonalLoop=1;jettySize=auto;elbow=horizontal;html=1;entryX=0.022;entryY=0.839;entryDx=0;entryDy=0;entryPerimeter=0;" edge="1" parent="1" source="QwqwHCSS0KJHq1qbMGpB-6" target="QwqwHCSS0KJHq1qbMGpB-2">
          <mxGeometry relative="1" as="geometry">
            <Array as="points">
              <mxPoint x="220" y="350" />
            </Array>
          </mxGeometry>
        </mxCell>
        <mxCell id="QwqwHCSS0KJHq1qbMGpB-55" style="edgeStyle=elbowEdgeStyle;rounded=0;orthogonalLoop=1;jettySize=auto;elbow=vertical;html=1;entryX=0;entryY=0.707;entryDx=0;entryDy=0;entryPerimeter=0;" edge="1" parent="1" source="QwqwHCSS0KJHq1qbMGpB-6" target="QwqwHCSS0KJHq1qbMGpB-2">
          <mxGeometry relative="1" as="geometry" />
        </mxCell>
        <mxCell id="QwqwHCSS0KJHq1qbMGpB-56" value="SOURCE SYSTEM" style="rounded=1;whiteSpace=wrap;html=1;" vertex="1" parent="1">
          <mxGeometry x="80" y="90" width="120" height="30" as="geometry" />
        </mxCell>
        <mxCell id="QwqwHCSS0KJHq1qbMGpB-58" value="BRONZE LAYER" style="rounded=1;whiteSpace=wrap;html=1;fillColor=#ffe6cc;strokeColor=#d79b00;" vertex="1" parent="1">
          <mxGeometry x="280" y="90" width="120" height="30" as="geometry" />
        </mxCell>
        <mxCell id="QwqwHCSS0KJHq1qbMGpB-65" value="cust_info" style="text;html=1;align=center;verticalAlign=middle;whiteSpace=wrap;rounded=0;fillColor=#f5f5f5;strokeColor=#666666;fontColor=#333333;" vertex="1" parent="1">
          <mxGeometry x="475" y="178" width="110" height="30" as="geometry" />
        </mxCell>
        <mxCell id="QwqwHCSS0KJHq1qbMGpB-66" value="prd_info" style="text;html=1;align=center;verticalAlign=middle;whiteSpace=wrap;rounded=0;fillColor=#f5f5f5;strokeColor=#666666;fontColor=#333333;" vertex="1" parent="1">
          <mxGeometry x="475" y="220" width="110" height="30" as="geometry" />
        </mxCell>
        <mxCell id="QwqwHCSS0KJHq1qbMGpB-67" value="sales_details" style="text;html=1;align=center;verticalAlign=middle;whiteSpace=wrap;rounded=0;fillColor=#f5f5f5;strokeColor=#666666;fontColor=#333333;" vertex="1" parent="1">
          <mxGeometry x="475" y="140" width="110" height="30" as="geometry" />
        </mxCell>
        <mxCell id="QwqwHCSS0KJHq1qbMGpB-68" value="cust_az12" style="text;html=1;align=center;verticalAlign=middle;whiteSpace=wrap;rounded=0;fillColor=#f5f5f5;strokeColor=#666666;fontColor=#333333;" vertex="1" parent="1">
          <mxGeometry x="475" y="290" width="110" height="30" as="geometry" />
        </mxCell>
        <mxCell id="QwqwHCSS0KJHq1qbMGpB-69" value="loc_a101" style="text;html=1;align=center;verticalAlign=middle;whiteSpace=wrap;rounded=0;fillColor=#f5f5f5;strokeColor=#666666;fontColor=#333333;" vertex="1" parent="1">
          <mxGeometry x="475" y="330" width="110" height="30" as="geometry" />
        </mxCell>
        <mxCell id="QwqwHCSS0KJHq1qbMGpB-70" value="px_cat_g1v2" style="text;html=1;align=center;verticalAlign=middle;whiteSpace=wrap;rounded=0;fillColor=#f5f5f5;strokeColor=#666666;fontColor=#333333;" vertex="1" parent="1">
          <mxGeometry x="475" y="370" width="110" height="30" as="geometry" />
        </mxCell>
        <mxCell id="QwqwHCSS0KJHq1qbMGpB-71" value="SILVER LAYER" style="rounded=1;whiteSpace=wrap;html=1;fillColor=#f5f5f5;fontColor=#333333;strokeColor=#666666;" vertex="1" parent="1">
          <mxGeometry x="470" y="90" width="120" height="30" as="geometry" />
        </mxCell>
        <mxCell id="QwqwHCSS0KJHq1qbMGpB-79" style="edgeStyle=elbowEdgeStyle;rounded=0;orthogonalLoop=1;jettySize=auto;elbow=vertical;html=1;entryX=0.028;entryY=0.703;entryDx=0;entryDy=0;entryPerimeter=0;" edge="1" parent="1" source="QwqwHCSS0KJHq1qbMGpB-47">
          <mxGeometry relative="1" as="geometry">
            <mxPoint x="473.3599999999999" y="344.96000000000004" as="targetPoint" />
          </mxGeometry>
        </mxCell>
        <mxCell id="QwqwHCSS0KJHq1qbMGpB-81" value="&lt;b&gt;&lt;font style=&quot;font-size: 19px;&quot;&gt;DATA FLOW DIAGRAM&lt;/font&gt;&lt;/b&gt;" style="text;html=1;align=center;verticalAlign=middle;whiteSpace=wrap;rounded=0;" vertex="1" parent="1">
          <mxGeometry x="90" y="20" width="600" height="30" as="geometry" />
        </mxCell>
        <mxCell id="QwqwHCSS0KJHq1qbMGpB-82" value="GOLD LAYER" style="rounded=1;whiteSpace=wrap;html=1;fillColor=#fff2cc;strokeColor=#d6b656;" vertex="1" parent="1">
          <mxGeometry x="640" y="90" width="120" height="30" as="geometry" />
        </mxCell>
        <mxCell id="QwqwHCSS0KJHq1qbMGpB-106" value="" style="rounded=0;whiteSpace=wrap;html=1;fillColor=none;dashed=1;strokeColor=light-dark(#fac400, #767676);" vertex="1" parent="1">
          <mxGeometry x="640" y="120" width="120" height="320" as="geometry" />
        </mxCell>
        <mxCell id="QwqwHCSS0KJHq1qbMGpB-107" value="fact_sales" style="text;html=1;align=center;verticalAlign=middle;whiteSpace=wrap;rounded=0;fillColor=#fff2cc;strokeColor=#d6b656;" vertex="1" parent="1">
          <mxGeometry x="645" y="140" width="110" height="30" as="geometry" />
        </mxCell>
        <mxCell id="QwqwHCSS0KJHq1qbMGpB-108" value="dim_customers" style="text;html=1;align=center;verticalAlign=middle;whiteSpace=wrap;rounded=0;fillColor=#fff2cc;strokeColor=#d6b656;" vertex="1" parent="1">
          <mxGeometry x="645" y="180" width="110" height="30" as="geometry" />
        </mxCell>
        <mxCell id="QwqwHCSS0KJHq1qbMGpB-109" value="dim_products" style="text;html=1;align=center;verticalAlign=middle;whiteSpace=wrap;rounded=0;fillColor=#fff2cc;strokeColor=#d6b656;" vertex="1" parent="1">
          <mxGeometry x="645" y="270" width="110" height="30" as="geometry" />
        </mxCell>
        <mxCell id="QwqwHCSS0KJHq1qbMGpB-120" value="" style="endArrow=classic;html=1;rounded=0;elbow=vertical;jumpStyle=gap;" edge="1" parent="1">
          <mxGeometry width="50" height="50" relative="1" as="geometry">
            <mxPoint x="585" y="160" as="sourcePoint" />
            <mxPoint x="640" y="160" as="targetPoint" />
          </mxGeometry>
        </mxCell>
        <mxCell id="QwqwHCSS0KJHq1qbMGpB-121" value="" style="endArrow=classic;html=1;rounded=0;elbow=vertical;jumpStyle=gap;" edge="1" parent="1">
          <mxGeometry width="50" height="50" relative="1" as="geometry">
            <mxPoint x="585" y="194.5" as="sourcePoint" />
            <mxPoint x="640" y="194.5" as="targetPoint" />
          </mxGeometry>
        </mxCell>
        <mxCell id="QwqwHCSS0KJHq1qbMGpB-122" value="" style="endArrow=classic;html=1;rounded=0;elbow=vertical;entryX=0;entryY=0.25;entryDx=0;entryDy=0;jumpStyle=gap;" edge="1" parent="1" target="QwqwHCSS0KJHq1qbMGpB-106">
          <mxGeometry width="50" height="50" relative="1" as="geometry">
            <mxPoint x="585" y="304.5" as="sourcePoint" />
            <mxPoint x="640" y="304.5" as="targetPoint" />
          </mxGeometry>
        </mxCell>
        <mxCell id="QwqwHCSS0KJHq1qbMGpB-123" value="" style="endArrow=classic;html=1;rounded=0;elbow=vertical;entryX=0;entryY=0.25;entryDx=0;entryDy=0;jumpStyle=gap;" edge="1" parent="1" target="QwqwHCSS0KJHq1qbMGpB-106">
          <mxGeometry width="50" height="50" relative="1" as="geometry">
            <mxPoint x="585" y="344.5" as="sourcePoint" />
            <mxPoint x="640" y="240" as="targetPoint" />
          </mxGeometry>
        </mxCell>
        <mxCell id="QwqwHCSS0KJHq1qbMGpB-124" value="" style="endArrow=classic;html=1;rounded=0;elbow=vertical;entryX=0.006;entryY=0.53;entryDx=0;entryDy=0;entryPerimeter=0;jumpStyle=gap;" edge="1" parent="1" target="QwqwHCSS0KJHq1qbMGpB-106">
          <mxGeometry width="50" height="50" relative="1" as="geometry">
            <mxPoint x="585" y="384.5" as="sourcePoint" />
            <mxPoint x="640" y="240" as="targetPoint" />
          </mxGeometry>
        </mxCell>
        <mxCell id="QwqwHCSS0KJHq1qbMGpB-125" value="" style="endArrow=classic;html=1;rounded=0;elbow=vertical;entryX=0.022;entryY=0.524;entryDx=0;entryDy=0;entryPerimeter=0;jumpStyle=gap;" edge="1" parent="1" target="QwqwHCSS0KJHq1qbMGpB-106">
          <mxGeometry width="50" height="50" relative="1" as="geometry">
            <mxPoint x="585" y="234.5" as="sourcePoint" />
            <mxPoint x="641" y="140" as="targetPoint" />
          </mxGeometry>
        </mxCell>
      </root>
    </mxGraphModel>
  </diagram>
</mxfile>
